{"title":"Becky G ft. Will.i.am - Problem (The Monster Remix) 720p [Sbyky]","uid":8054809,"size":67345954,"categoryP":"video","categoryS":"music_videos","magnet":"?xt=urn:btih:ac10419f8fe839e9a69e0202111b1d41a5f11dde&amp;dn=Becky+G+ft.+Will.i.am+-+Problem+%28The+Monster+Remix%29+720p+%5BSbyky%5D&amp;tr=udp%3A%2F%2Ftracker.openbittorrent.com%3A80&amp;tr=udp%3A%2F%2Fopen.demonii.com%3A1337&amp;tr=udp%3A%2F%2Ftracker.coppersurfer.tk%3A6969&amp;tr=udp%3A%2F%2Fexodus.desync.com%3A6969","seeders":0,"leechers":2,"uploader":"Sbyky","files":-1,"time":1358938753,"description":" &lt;a href=&quot;http://www.shotpix.com/images/51013078752072564413.jpg&quot; rel=&quot;nofollow&quot; target=&quot;_NEW&quot;&gt;http://www.shotpix.com/images/51013078752072564413.jpg&lt;/a&gt;\n\nGeneral\nComplete name                            : Becky G ft. Will.i.am - Problem (The Monster Remix) 720p [Sbyky].mp4\nFormat                                   : MPEG-4\nFormat profile                           : Base Media / Version 2\nCodec ID                                 : mp42\nFile size                                : 64.2 MiB\nDuration                                 : 3mn 23s\nOverall bit rate mode                    : Variable\nOverall bit rate                         : 2 646 Kbps\nEncoded date                             : UTC 2012-09-10 15:52:17\nTagged date                              : UTC 2012-09-10 15:52:17\ngsst                                     : 0\ngstd                                     : 203755\ngssd                                     : BADC237E5HH1358924271838219\ngshh                                     :\n\nVideo\nID                                       : 1\nFormat                                   : AVC\nFormat/Info                              : Advanced Video Codec\nFormat profile                           : &lt;a class=&quot;__cf_email__&quot; href=&quot;/cdn-cgi/l/email-protection&quot; data-cfemail=&quot;1058797778505c233e21&quot;&gt;[email&amp;#160;protected]&lt;/a&gt;&lt;script cf-hash='f9e31' type=&quot;text/javascript&quot;&gt;\n/* &lt;![CDATA[ */!function(){try{var t=&quot;currentScript&quot;in document?document.currentScript:function(){for(var t=document.getElementsByTagName(&quot;script&quot;),e=t.length;e--;)if(t[e].getAttribute(&quot;cf-hash&quot;))return t[e]}();if(t&amp;&amp;t.previousSibling){var e,r,n,i,c=t.previousSibling,a=c.getAttribute(&quot;data-cfemail&quot;);if(a){for(e=&quot;&quot;,r=parseInt(a.substr(0,2),16),n=2;a.length-n;n+=2)i=parseInt(a.substr(n,2),16)^r,e+=String.fromCharCode(i);e=document.createTextNode(e),c.parentNode.replaceChild(e,c)}}}catch(u){}}();/* ]]&gt; */&lt;/script&gt;\nFormat settings, CABAC                   : Yes\nFormat settings, ReFrames                : 1 frame\nCodec ID                                 : avc1\nCodec ID/Info                            : Advanced Video Coding\nDuration                                 : 3mn 23s\nBit rate                                 : 2 451 Kbps\nMaximum bit rate                         : 10.1 Mbps\nWidth                                    : 1 280 pixels\nHeight                                   : 720 pixels\nDisplay aspect ratio                     : 16:9\nFrame rate mode                          : Constant\nFrame rate                               : 23.976 fps\nColor space                              : YUV\nChroma subsampling                       : 4:2:0\nBit depth                                : 8 bits\nScan type                                : Progressive\nBits/(Pixel*Frame)                       : 0.111\nStream size                              : 59.5 MiB (93%)\nTagged date                              : UTC 2012-09-10 15:52:17\n\nAudio\nID                                       : 2\nFormat                                   : AAC\nFormat/Info                              : Advanced Audio Codec\nFormat profile                           : LC\nCodec ID                                 : 40\nDuration                                 : 3mn 23s\nBit rate mode                            : Variable\nBit rate                                 : 192 Kbps\nMaximum bit rate                         : 202 Kbps\nChannel(s)                               : 2 channels\nChannel positions                        : Front: L R\nSampling rate                            : 44.1 KHz\nCompression mode                         : Lossy\nStream size                              : 4.66 MiB (7%)\nTitle                                    : IsoMedia File Produced by Google, 5-11-2011\nEncoded date                             : UTC 2012-09-10 15:52:17\nTagged date                              : UTC 2012-09-10 15:52:17\n\nShared By Sbyky &lt;a href=&quot;\nhttp://www.shotpix.com/images/36391391396177178781.gif&quot; rel=&quot;nofollow&quot; target=&quot;_NEW&quot;&gt;\nhttp://www.shotpix.com/images/36391391396177178781.gif&lt;/a&gt; &lt;a href=&quot;\nhttp://www.shotpix.com/images/54442018924177629170.gif&quot; rel=&quot;nofollow&quot; target=&quot;_NEW&quot;&gt;\nhttp://www.shotpix.com/images/54442018924177629170.gif&lt;/a&gt;","torrent":{"xt":"urn:btih:ac10419f8fe839e9a69e0202111b1d41a5f11dde","amp;dn":"Becky+G+ft.+Will.i.am+-+Problem+%28The+Monster+Remix%29+720p+%5BSbyky%5D","amp;tr":["udp%3A%2F%2Ftracker.openbittorrent.com%3A80","udp%3A%2F%2Fopen.demonii.com%3A1337","udp%3A%2F%2Ftracker.coppersurfer.tk%3A6969","udp%3A%2F%2Fexodus.desync.com%3A6969"],"infoHash":"ac10419f8fe839e9a69e0202111b1d41a5f11dde","infoHashBuffer":{"type":"Buffer","data":[172,16,65,159,143,232,57,233,166,158,2,2,17,27,29,65,165,241,29,222]},"announce":[],"urlList":[]}}